<svg width="500" height="500" viewBox="0 0 500 500" fill="none" xmlns="http://www.w3.org/2000/svg">
<path d="M123.64 412.55C123.64 412.55 171.64 437.48 226.43 411.2C281.22 384.92 299 334 327.48 295.7C342.38 275.7 366.76 264.5 385.35 247.64C444.81 193.76 423.35 103.64 368.96 78.95C321.87 57.55 267.47 65.22 200.06 101.45C132.65 137.68 84.06 161.06 48.69 233.26C13.32 305.46 64 377.62 123.64 412.55Z" fill="#407BFF"/>
<path opacity="0.7" d="M123.64 412.55C123.64 412.55 171.64 437.48 226.43 411.2C281.22 384.92 299 334 327.48 295.7C342.38 275.7 366.76 264.5 385.35 247.64C444.81 193.76 423.35 103.64 368.96 78.95C321.87 57.55 267.47 65.22 200.06 101.45C132.65 137.68 84.06 161.06 48.69 233.26C13.32 305.46 64 377.62 123.64 412.55Z" fill="white"/>
<path d="M415.3 381.13C415.3 381.13 412 367 414.46 354.45C416.92 341.9 422.8 350.28 429.46 341.94C436.12 333.6 432.8 317.76 440.3 311.09C447.8 304.42 458.65 305.25 461.15 292.74C463.65 280.23 465.32 270.23 470.32 271.9C475.32 273.57 466.15 288.57 466.15 297.75C466.15 306.93 471.15 312.75 467.82 321.93C464.49 331.11 450.31 327.76 450.31 338.6C450.31 349.44 456.15 360.28 451.14 367.79C446.13 375.3 432.8 376.96 431.14 381.13C429.48 385.3 425.3 392.8 421.14 392.8C416.98 392.8 415.3 381.13 415.3 381.13Z" fill="#BFBFBF"/>
<path d="M412.58 381.28C413.42 378.78 411.75 357.1 404.25 352.93C396.75 348.76 388.4 350.43 384.25 342.93C380.1 335.43 380.08 332.09 375.92 331.26C371.76 330.43 351.73 327.09 354.24 331.26C356.75 335.43 371.75 328.76 371.75 337.09C371.75 345.42 370.08 358.77 375.08 362.09C380.08 365.41 393.43 364.59 392.59 372.09C391.75 379.59 389.26 382.09 393.43 384.59C397.6 387.09 409.27 397.94 410.94 389.59L412.58 381.28Z" fill="#BFBFBF"/>
<path d="M421.86 399.66C421.86 399.66 417.98 387.53 428.66 365.19C439.34 342.85 447.11 325.86 451.97 317.12" stroke="#263238" stroke-width="1.23197" stroke-miterlimit="10"/>
<path d="M413.12 401.61C413.12 401.61 411.67 395.78 406.81 379.76C401.95 363.74 396.13 359.36 387.87 354.02C379.61 348.68 379.13 339.94 377.68 337.51" stroke="#263238" stroke-width="1.23197" stroke-miterlimit="10"/>
<path d="M433.52 392.87C433.52 392.87 434.52 384.13 442.26 381.7C450 379.27 457.31 380.24 458.77 374.9C460.23 369.56 460.22 364.22 463.62 361.3C467.02 358.38 471.39 356.93 471.88 358.39C472.37 359.85 467.02 360.82 467.02 365.67C467.02 370.52 474.3 382.67 463.62 387.53C452.94 392.39 444.2 388.01 440.32 391.41C436.44 394.81 434 397.24 434 397.24L433.52 392.87Z" fill="#BFBFBF"/>
<path d="M432.55 401.61C432.55 401.61 436 389 444.2 386.07C452.4 383.14 461.68 389.47 465.56 383.64C469.44 377.81 466.56 371.99 466.05 368.1" stroke="#263238" stroke-width="1.23197" stroke-miterlimit="10"/>
<path d="M438 399.66H407.9C407.581 399.66 407.266 399.723 406.972 399.845C406.677 399.967 406.41 400.147 406.185 400.372C405.96 400.598 405.782 400.866 405.661 401.161C405.54 401.456 405.479 401.771 405.48 402.09V402.09C405.479 402.409 405.54 402.724 405.661 403.019C405.782 403.314 405.96 403.582 406.185 403.808C406.41 404.033 406.677 404.213 406.972 404.335C407.266 404.457 407.581 404.52 407.9 404.52H408.15L410.49 410.67C410.672 411.146 410.994 411.556 411.414 411.845C411.833 412.134 412.33 412.289 412.84 412.29H433.07C433.58 412.289 434.077 412.134 434.496 411.845C434.916 411.556 435.238 411.146 435.42 410.67L437.77 404.52H438C438.644 404.52 439.263 404.264 439.718 403.808C440.174 403.353 440.43 402.734 440.43 402.09V402.09C440.43 401.446 440.174 400.827 439.718 400.372C439.263 399.916 438.644 399.66 438 399.66V399.66Z" fill="#263238"/>
<path d="M114.73 195.26C132.353 195.26 146.64 180.973 146.64 163.35C146.64 145.727 132.353 131.44 114.73 131.44C97.1066 131.44 82.82 145.727 82.82 163.35C82.82 180.973 97.1066 195.26 114.73 195.26Z" stroke="#263238" stroke-width="1.23197" stroke-linecap="round" stroke-linejoin="round"/>
<path d="M118.859 189.455C133.283 187.181 143.133 173.644 140.858 159.22C138.584 144.796 125.047 134.946 110.623 137.221C96.1988 139.495 86.3493 153.032 88.6236 167.456C90.8978 181.88 104.435 191.73 118.859 189.455Z" stroke="#263238" stroke-width="1.23197" stroke-linecap="round" stroke-linejoin="round"/>
<path d="M97.86 163.35H114.73V187.68" stroke="#263238" stroke-width="1.23197" stroke-linecap="round" stroke-linejoin="round"/>
<path d="M261.75 406.94C261.75 405.882 262.064 404.848 262.652 403.968C263.24 403.088 264.075 402.402 265.053 401.997C266.03 401.592 267.106 401.486 268.144 401.693C269.182 401.899 270.135 402.409 270.883 403.157C271.631 403.905 272.141 404.858 272.347 405.896C272.554 406.934 272.448 408.01 272.043 408.987C271.638 409.965 270.952 410.8 270.072 411.388C269.193 411.976 268.158 412.29 267.1 412.29C266.397 412.291 265.701 412.154 265.051 411.885C264.401 411.617 263.811 411.223 263.314 410.726C262.817 410.229 262.423 409.639 262.155 408.989C261.886 408.339 261.749 407.643 261.75 406.94V406.94Z" fill="#263238" stroke="#263238" stroke-width="1.23197" stroke-linecap="round" stroke-linejoin="round"/>
<path d="M264.42 406.94C264.418 406.41 264.574 405.89 264.867 405.448C265.16 405.006 265.578 404.661 266.067 404.457C266.557 404.252 267.096 404.198 267.617 404.3C268.137 404.403 268.616 404.657 268.991 405.031C269.367 405.406 269.624 405.883 269.728 406.403C269.832 406.924 269.779 407.463 269.577 407.953C269.374 408.444 269.031 408.863 268.59 409.158C268.149 409.453 267.63 409.61 267.1 409.61C266.391 409.61 265.711 409.329 265.208 408.829C264.706 408.328 264.423 407.649 264.42 406.94V406.94Z" fill="white" stroke="#263238" stroke-width="1.23197" stroke-linecap="round" stroke-linejoin="round"/>
<path d="M204.44 406.94C204.44 405.882 204.754 404.848 205.342 403.968C205.93 403.088 206.765 402.402 207.743 401.997C208.72 401.592 209.796 401.486 210.834 401.693C211.872 401.899 212.825 402.409 213.573 403.157C214.321 403.905 214.831 404.858 215.037 405.896C215.244 406.934 215.138 408.01 214.733 408.987C214.328 409.965 213.642 410.8 212.762 411.388C211.882 411.976 210.848 412.29 209.79 412.29C209.087 412.29 208.392 412.152 207.743 411.883C207.094 411.614 206.504 411.22 206.007 410.723C205.51 410.226 205.116 409.636 204.847 408.987C204.578 408.338 204.44 407.643 204.44 406.94V406.94Z" fill="#263238" stroke="#263238" stroke-width="1.23197" stroke-linecap="round" stroke-linejoin="round"/>
<path d="M207.12 406.94C207.118 406.409 207.274 405.89 207.567 405.447C207.861 405.005 208.28 404.66 208.77 404.456C209.26 404.252 209.8 404.198 210.32 404.301C210.841 404.404 211.32 404.66 211.695 405.035C212.07 405.41 212.326 405.889 212.429 406.41C212.532 406.93 212.478 407.47 212.274 407.96C212.07 408.45 211.725 408.869 211.283 409.162C210.84 409.456 210.321 409.612 209.79 409.61C209.083 409.607 208.405 409.325 207.905 408.825C207.405 408.325 207.123 407.647 207.12 406.94V406.94Z" fill="white" stroke="#263238" stroke-width="1.23197" stroke-linecap="round" stroke-linejoin="round"/>
<path d="M185.72 406.94C185.72 405.882 186.034 404.848 186.622 403.968C187.21 403.088 188.045 402.402 189.023 401.997C190 401.592 191.076 401.486 192.114 401.693C193.152 401.899 194.105 402.409 194.853 403.157C195.601 403.905 196.111 404.858 196.317 405.896C196.524 406.934 196.418 408.01 196.013 408.987C195.608 409.965 194.922 410.8 194.042 411.388C193.162 411.976 192.128 412.29 191.07 412.29C190.367 412.291 189.671 412.154 189.021 411.885C188.371 411.617 187.781 411.223 187.284 410.726C186.787 410.229 186.393 409.639 186.125 408.989C185.856 408.339 185.719 407.643 185.72 406.94V406.94Z" fill="#263238" stroke="#263238" stroke-width="1.23197" stroke-linecap="round" stroke-linejoin="round"/>
<path d="M188.39 406.94C188.388 406.41 188.544 405.89 188.837 405.448C189.13 405.006 189.548 404.661 190.037 404.457C190.527 404.252 191.066 404.198 191.587 404.3C192.107 404.403 192.586 404.657 192.961 405.031C193.337 405.406 193.594 405.883 193.698 406.403C193.802 406.924 193.749 407.463 193.547 407.953C193.344 408.444 193.001 408.863 192.56 409.158C192.119 409.453 191.6 409.61 191.07 409.61C190.361 409.61 189.681 409.329 189.178 408.829C188.676 408.328 188.393 407.649 188.39 406.94V406.94Z" fill="white" stroke="#263238" stroke-width="1.23197" stroke-linecap="round" stroke-linejoin="round"/>
<path d="M229.4 400.82H218.09V342.92H229.37V400.82H229.4Z" fill="#263238" stroke="#263238" stroke-width="1.23197" stroke-linecap="round" stroke-linejoin="round"/>
<path d="M215.08 400.82H232.42V359.91H215.08V400.82Z" fill="#263238" stroke="#263238" stroke-width="1.23197" stroke-linecap="round" stroke-linejoin="round"/>
<path d="M249.82 333.21H235.34V302.07H249.85V333.16L249.82 333.21Z" fill="#263238" stroke="#263238" stroke-width="1.23197" stroke-linecap="round" stroke-linejoin="round"/>
<path d="M213.92 302H270.58C271.904 301.999 273.215 301.733 274.436 301.218C275.656 300.703 276.761 299.949 277.685 299C278.609 298.052 279.335 296.928 279.818 295.695C280.301 294.461 280.533 293.144 280.5 291.82L279.14 236.51C279.075 233.92 278 231.458 276.145 229.649C274.289 227.841 271.801 226.829 269.21 226.83H222.43C220.057 226.829 217.762 227.677 215.961 229.222C214.16 230.766 212.971 232.905 212.61 235.25L204.11 290.56C203.892 291.975 203.983 293.42 204.376 294.796C204.769 296.172 205.455 297.447 206.386 298.534C207.318 299.621 208.474 300.493 209.774 301.091C211.074 301.689 212.489 301.999 213.92 302V302Z" fill="#407BFF" stroke="#263238" stroke-width="1.23197" stroke-linecap="round" stroke-linejoin="round"/>
<path d="M232.44 344.91L257.29 361.28" stroke="#263238" stroke-width="1.23197" stroke-linecap="round" stroke-linejoin="round"/>
<path d="M258.23 358.8L262.47 361.65C262.81 361.882 263.095 362.186 263.304 362.541C263.513 362.896 263.64 363.293 263.677 363.703C263.715 364.113 263.661 364.526 263.519 364.913C263.378 365.3 263.153 365.651 262.86 365.94L262.56 366.22C262.072 366.699 261.424 366.98 260.741 367.009C260.058 367.039 259.388 366.815 258.86 366.38L255 363.17C254.708 362.932 254.47 362.635 254.298 362.3C254.127 361.964 254.028 361.597 254.006 361.221C253.985 360.844 254.041 360.468 254.173 360.115C254.304 359.762 254.508 359.44 254.77 359.17V359.17C255.213 358.714 255.801 358.427 256.433 358.359C257.065 358.292 257.701 358.448 258.23 358.8V358.8Z" fill="#263238" stroke="#263238" stroke-width="1.23197" stroke-linecap="round" stroke-linejoin="round"/>
<path d="M177.67 347.74H269.82C272.178 347.74 274.439 346.803 276.106 345.136C277.773 343.469 278.71 341.208 278.71 338.85V338.85C278.71 336.492 277.773 334.231 276.106 332.564C274.439 330.897 272.178 329.96 269.82 329.96H177.67C175.312 329.96 173.051 330.897 171.384 332.564C169.717 334.231 168.78 336.492 168.78 338.85V338.85C168.78 341.208 169.717 343.469 171.384 345.136C173.051 346.803 175.312 347.74 177.67 347.74V347.74Z" fill="#407BFF" stroke="#263238" stroke-width="1.23197" stroke-linecap="round" stroke-linejoin="round"/>
<path d="M168.84 337.77C169.171 335.587 170.281 333.597 171.964 332.169C173.648 330.741 175.792 329.97 178 330H225.8C228.021 329.962 230.179 330.733 231.872 332.171C233.565 333.608 234.677 335.613 235 337.81C235.156 339.062 235.044 340.332 234.671 341.538C234.299 342.743 233.675 343.855 232.84 344.801C232.005 345.746 230.978 346.504 229.828 347.023C228.678 347.541 227.431 347.81 226.17 347.81H177.67C176.405 347.81 175.154 347.541 174.001 347.02C172.848 346.499 171.819 345.738 170.984 344.788C170.148 343.838 169.525 342.72 169.155 341.51C168.785 340.3 168.678 339.025 168.84 337.77V337.77Z" fill="#407BFF" stroke="#263238" stroke-width="1.23197" stroke-linecap="round" stroke-linejoin="round"/>
<path d="M184 404.05H272.48C272.477 402.765 271.965 401.534 271.056 400.627C270.147 399.72 268.915 399.21 267.63 399.21H188.84C187.556 399.21 186.325 399.72 185.418 400.628C184.51 401.535 184 402.766 184 404.05Z" fill="#263238" stroke="#263238" stroke-width="1.23197" stroke-linecap="round" stroke-linejoin="round"/>
<path d="M199.75 404.05H228.55V399.21H204.55C203.265 399.21 202.033 399.72 201.124 400.627C200.215 401.534 199.703 402.765 199.7 404.05H199.75Z" fill="#263238" stroke="#263238" stroke-width="1.23197" stroke-linecap="round" stroke-linejoin="round"/>
<path d="M193.57 292.78L187.19 303.29C187.19 303.29 164.88 305.53 152.13 308.39C139.38 311.25 136.83 325.29 136.19 328.16C135.48 331.36 131.53 398.25 132.8 398.57C134.07 398.89 143.64 399.84 143.64 399.84C143.64 399.84 159.78 334.84 164.56 333.89C169.34 332.94 240.1 334.53 250.62 328.79C261.14 323.05 263.69 306.48 257.62 295.01C251.55 283.54 193.57 292.78 193.57 292.78Z" fill="#263238" stroke="#263238" stroke-width="1.23197" stroke-linecap="round" stroke-linejoin="round"/>
<path d="M236.92 305.53C236.92 305.53 207.27 305.53 192.92 306.8C178.57 308.07 169.65 318.91 170.29 328.48C170.93 338.05 182.52 400.8 182.52 400.8L193.67 399.8L199.67 332.56C199.67 332.56 209.67 339.04 248.46 329.08" fill="#263238"/>
<path d="M236.92 305.53C236.92 305.53 207.27 305.53 192.92 306.8C178.57 308.07 169.65 318.91 170.29 328.48C170.93 338.05 182.52 400.8 182.52 400.8L193.67 399.8L199.67 332.56C199.67 332.56 209.67 339.04 248.46 329.08" stroke="#263238" stroke-width="1.23197" stroke-linecap="round" stroke-linejoin="round"/>
<path d="M306.72 203.21C305.72 202.57 302.58 210.86 302.58 210.86C300.561 210.752 298.539 210.752 296.52 210.86C293.02 211.18 290.15 215.96 290.15 219.15C290.15 222.34 275.48 247.83 275.48 247.83C275.48 247.83 262.73 226.83 258.27 223.29C253.81 219.75 237.27 216.6 237.27 216.6C230.501 215.54 223.609 215.54 216.84 216.6C216.84 216.6 200.27 219.78 195.84 223.29C191.41 226.8 178.62 247.83 178.62 247.83C178.62 247.83 163.96 222.33 163.96 219.15C163.96 215.97 161.09 211.15 157.59 210.86C155.571 210.752 153.549 210.752 151.53 210.86C151.53 210.86 148.34 202.57 147.39 203.21C146.44 203.85 148.02 214.05 148.98 216.28C149.94 218.51 157.91 220.1 157.91 220.1C157.91 220.1 167.79 257.71 170.97 262.81C174.15 267.91 177.67 274.29 186.27 270.46C194.87 266.63 205.72 254.21 205.72 254.21L223.91 254.49H225.28H226.43L248.43 254.21C248.43 254.21 259.27 266.64 267.87 270.46C276.47 274.28 279.99 267.91 283.17 262.81C286.35 257.71 296.2 220.1 296.2 220.1C296.2 220.1 304.2 218.51 305.13 216.28C306.06 214.05 307.68 203.85 306.72 203.21Z" fill="#9C9C9C" stroke="#263238" stroke-width="1.23197" stroke-linecap="round" stroke-linejoin="round"/>
<path d="M280.64 238.66C277.83 243.76 275.48 247.83 275.48 247.83C275.48 247.83 262.73 226.83 258.27 223.29C253.81 219.75 237.27 216.6 237.27 216.6C230.501 215.54 223.609 215.54 216.84 216.6C216.84 216.6 200.27 219.78 195.84 223.29C191.41 226.8 178.62 247.83 178.62 247.83C178.62 247.83 176.08 243.42 173.12 238.03L164.35 243.37C166.91 252.16 169.58 260.59 170.97 262.81C174.16 267.91 177.67 274.29 186.27 270.46C194.87 266.63 205.72 254.21 205.72 254.21L223.91 254.49H225.28H226.43L248.43 254.21C248.43 254.21 259.27 266.64 267.87 270.46C276.47 274.28 279.99 267.91 283.17 262.81C284.57 260.58 287.25 252.12 289.82 243.3L280.64 238.66Z" fill="white"/>
<path d="M273 253.73C272.83 251.64 272.67 249.66 273.52 248.39C273.916 247.796 274.35 247.228 274.82 246.69L273.56 244.69C272.819 245.443 272.15 246.263 271.56 247.14C270.27 249.08 270.46 251.55 270.66 253.95C270.82 256.04 270.98 258.01 270.13 259.29C269.4 260.38 268.69 260.29 266.74 259.89C264.891 259.357 262.929 259.357 261.08 259.89C260.273 260.185 259.551 260.673 258.976 261.311C258.401 261.948 257.99 262.717 257.78 263.55C258.41 264.1 259.06 264.65 259.72 265.18C259.99 263.75 260.59 262.48 261.81 262.08C263.276 261.68 264.824 261.697 266.28 262.13C268.22 262.53 270.43 262.99 272.05 260.55C273.36 258.6 273.16 256.13 273 253.73Z" fill="#407BFF"/>
<path d="M248.39 254.21L249.15 255.06C249.836 254.777 250.49 254.422 251.1 254C251.802 253.847 252.528 253.847 253.23 254C255.608 254.316 258.025 254.156 260.34 253.53C264.21 252.42 264.34 248.22 264.48 244.53C264.55 242.47 264.62 240.33 265.33 239.04C265.664 238.406 266.207 237.908 266.868 237.631C267.528 237.354 268.264 237.315 268.95 237.52C268.44 236.73 267.95 235.94 267.38 235.15C266.518 235.221 265.688 235.514 264.973 236.001C264.258 236.489 263.681 237.153 263.3 237.93C262.3 239.7 262.25 242.12 262.17 244.45C262.04 248.32 261.8 250.72 259.71 251.31C257.668 251.862 255.536 251.998 253.44 251.71C251.93 251.58 250.63 251.46 249.65 252.24C248.141 253.057 246.557 253.727 244.92 254.24L248.39 254.21Z" fill="#407BFF"/>
<path d="M193.57 259.88C191.721 259.347 189.759 259.347 187.91 259.88C185.96 260.28 185.25 260.37 184.52 259.28C183.67 258 183.83 256.03 184 253.94C184.19 251.54 184.38 249.07 183.09 247.13C182.425 246.1 181.643 245.151 180.76 244.3L179.5 246.3C180.12 246.943 180.679 247.643 181.17 248.39C182.02 249.66 181.86 251.64 181.69 253.73C181.5 256.13 181.3 258.6 182.6 260.54C184.22 262.98 186.43 262.54 188.37 262.12C189.826 261.687 191.374 261.67 192.84 262.07C193.377 262.305 193.844 262.675 194.195 263.145C194.545 263.615 194.768 264.168 194.84 264.75C195.49 264.22 196.12 263.68 196.74 263.13C196.495 262.382 196.082 261.7 195.532 261.137C194.983 260.573 194.312 260.143 193.57 259.88V259.88Z" fill="#407BFF"/>
<path d="M201.23 251.68C199.131 251.968 196.996 251.832 194.95 251.28C192.86 250.69 192.62 248.28 192.49 244.42C192.41 242.09 192.33 239.67 191.36 237.9C190.929 237.034 190.26 236.309 189.43 235.811C188.601 235.313 187.647 235.063 186.68 235.09C186.1 235.96 185.53 236.83 184.97 237.69C186.14 237.29 188.22 236.96 189.33 239.01C190.04 240.3 190.11 242.44 190.18 244.5C190.31 248.2 190.46 252.4 194.32 253.5C196.635 254.126 199.052 254.286 201.43 253.97C202.132 253.817 202.858 253.817 203.56 253.97C204.032 254.306 204.538 254.591 205.07 254.82L205.66 254.17L209.8 254.23C208.141 253.698 206.537 253.008 205.01 252.17C204 251.43 202.73 251.55 201.23 251.68Z" fill="#407BFF"/>
<g opacity="0.5">
<path d="M273 253.73C272.83 251.64 272.67 249.66 273.52 248.39C273.916 247.796 274.35 247.228 274.82 246.69L273.56 244.69C272.819 245.443 272.15 246.263 271.56 247.14C270.27 249.08 270.46 251.55 270.66 253.95C270.82 256.04 270.98 258.01 270.13 259.29C269.4 260.38 268.69 260.29 266.74 259.89C264.891 259.357 262.929 259.357 261.08 259.89C260.273 260.185 259.551 260.673 258.976 261.311C258.401 261.948 257.99 262.717 257.78 263.55C258.41 264.1 259.06 264.65 259.72 265.18C259.99 263.75 260.59 262.48 261.81 262.08C263.276 261.68 264.824 261.697 266.28 262.13C268.22 262.53 270.43 262.99 272.05 260.55C273.36 258.6 273.16 256.13 273 253.73Z" fill="white"/>
<path d="M248.39 254.21L249.15 255.06C249.836 254.777 250.49 254.422 251.1 254C251.802 253.847 252.528 253.847 253.23 254C255.608 254.316 258.025 254.156 260.34 253.53C264.21 252.42 264.34 248.22 264.48 244.53C264.55 242.47 264.62 240.33 265.33 239.04C265.664 238.406 266.207 237.908 266.868 237.631C267.528 237.354 268.264 237.315 268.95 237.52C268.44 236.73 267.95 235.94 267.38 235.15C266.518 235.221 265.688 235.514 264.973 236.001C264.258 236.489 263.681 237.153 263.3 237.93C262.3 239.7 262.25 242.12 262.17 244.45C262.04 248.32 261.8 250.72 259.71 251.31C257.668 251.862 255.536 251.998 253.44 251.71C251.93 251.58 250.63 251.46 249.65 252.24C248.141 253.057 246.557 253.727 244.92 254.24L248.39 254.21Z" fill="white"/>
<path d="M193.57 259.88C191.721 259.347 189.759 259.347 187.91 259.88C185.96 260.28 185.25 260.37 184.52 259.28C183.67 258 183.83 256.03 184 253.94C184.19 251.54 184.38 249.07 183.09 247.13C182.425 246.1 181.643 245.151 180.76 244.3L179.5 246.3C180.12 246.943 180.679 247.643 181.17 248.39C182.02 249.66 181.86 251.64 181.69 253.73C181.5 256.13 181.3 258.6 182.6 260.54C184.22 262.98 186.43 262.54 188.37 262.12C189.826 261.687 191.374 261.67 192.84 262.07C193.377 262.305 193.844 262.675 194.195 263.145C194.545 263.615 194.768 264.168 194.84 264.75C195.49 264.22 196.12 263.68 196.74 263.13C196.495 262.382 196.082 261.7 195.532 261.137C194.983 260.573 194.312 260.143 193.57 259.88V259.88Z" fill="white"/>
<path d="M201.23 251.68C199.131 251.968 196.996 251.832 194.95 251.28C192.86 250.69 192.62 248.28 192.49 244.42C192.41 242.09 192.33 239.67 191.36 237.9C190.929 237.034 190.26 236.309 189.43 235.811C188.601 235.313 187.647 235.063 186.68 235.09C186.1 235.96 185.53 236.83 184.97 237.69C186.14 237.29 188.22 236.96 189.33 239.01C190.04 240.3 190.11 242.44 190.18 244.5C190.31 248.2 190.46 252.4 194.32 253.5C196.635 254.126 199.052 254.286 201.43 253.97C202.132 253.817 202.858 253.817 203.56 253.97C204.032 254.306 204.538 254.591 205.07 254.82L205.66 254.17L209.8 254.23C208.141 253.698 206.537 253.008 205.01 252.17C204 251.43 202.73 251.55 201.23 251.68Z" fill="white"/>
</g>
<path d="M280.64 238.66C277.83 243.76 275.48 247.83 275.48 247.83C275.48 247.83 262.73 226.83 258.27 223.29C253.81 219.75 237.27 216.6 237.27 216.6C230.501 215.54 223.609 215.54 216.84 216.6C216.84 216.6 200.27 219.78 195.84 223.29C191.41 226.8 178.62 247.83 178.62 247.83C178.62 247.83 176.08 243.42 173.12 238.03L164.35 243.37C166.91 252.16 169.58 260.59 170.97 262.81C174.16 267.91 177.67 274.29 186.27 270.46C194.87 266.63 205.72 254.21 205.72 254.21L223.91 254.49H225.28H226.43L248.43 254.21C248.43 254.21 259.27 266.64 267.87 270.46C276.47 274.28 279.99 267.91 283.17 262.81C284.57 260.58 287.25 252.12 289.82 243.3L280.64 238.66Z" stroke="#263238" stroke-width="1.23197" stroke-linecap="round" stroke-linejoin="round"/>
<path d="M199.62 238.91C199.62 238.91 195.48 247.83 196.44 253.57C196.892 255.883 197.21 258.22 197.39 260.57C197.39 260.57 191.39 277.15 190.39 283.2C189.955 285.715 190.232 288.302 191.19 290.668C192.148 293.034 193.748 295.085 195.81 296.59C199.32 299.14 247.13 299.78 254.46 297.87C261.79 295.96 261.15 288.94 260.83 282.57C260.51 276.2 258 262.5 258 262.5C258 262.5 259 243.05 254.82 238.27" fill="white"/>
<path d="M236.21 251.72C234.511 251.64 232.909 250.905 231.74 249.67C227.39 245.67 224.49 245.01 221.41 247.25L220 248.33C216.81 250.77 213.79 253.07 209.07 250.16C207.99 249.5 207.01 248.79 206.15 248.16C202.98 245.86 201.6 245 199.33 246.86C197.64 248.24 196.33 249.06 194.83 248.86C192.92 248.63 191.58 246.86 188.92 243.3L188.74 243.06C188.354 242.452 187.842 241.934 187.238 241.543C186.634 241.151 185.952 240.894 185.24 240.79C183.726 240.819 182.28 241.419 181.19 242.47C181.083 242.577 180.956 242.663 180.816 242.721C180.676 242.779 180.526 242.809 180.375 242.809C180.224 242.809 180.074 242.779 179.934 242.721C179.794 242.663 179.667 242.577 179.56 242.47C179.451 242.364 179.365 242.237 179.306 242.097C179.247 241.957 179.217 241.807 179.217 241.655C179.217 241.503 179.247 241.353 179.306 241.213C179.365 241.073 179.451 240.946 179.56 240.84C181.121 239.317 183.22 238.473 185.4 238.49C186.446 238.604 187.454 238.949 188.351 239.498C189.249 240.048 190.013 240.79 190.59 241.67L190.76 241.91C192.82 244.65 194.17 246.46 195.11 246.57C195.64 246.63 196.48 246.18 197.87 245.05C201.6 241.99 204.47 244.05 207.51 246.27C208.38 246.9 209.28 247.55 210.28 248.17C213.65 250.25 215.51 248.83 218.6 246.48C219.07 246.11 219.6 245.74 220.08 245.37C225.2 241.64 229.65 244.58 233.33 247.95C236.08 250.47 237.82 249.36 241.47 246.61C242.17 246.09 242.9 245.53 243.69 244.99L244.05 244.74C248.76 241.47 249.28 241.74 255.65 245.27L257.36 246.21C259.57 247.43 260.93 248.21 261.56 248.14C262.19 248.07 262.65 247.45 263.86 246.08C264.35 245.51 264.94 244.85 265.66 244.08C270.82 238.55 272.51 238.92 276.66 240.81L276.99 240.96C277.268 241.086 277.485 241.317 277.593 241.603C277.701 241.889 277.691 242.207 277.565 242.485C277.439 242.763 277.208 242.98 276.922 243.088C276.636 243.196 276.318 243.186 276.04 243.06L275.71 242.91C272.27 241.34 271.65 241.06 267.35 245.66C266.66 246.41 266.09 247.05 265.6 247.61C262.28 251.38 261.6 251.18 256.25 248.23L254.55 247.29C248.91 244.19 248.91 244.19 245.38 246.64L245.01 246.89C244.25 247.42 243.55 247.95 242.87 248.46C240.64 250.12 238.53 251.72 236.21 251.72ZM242.83 259.56C243.51 259.05 244.21 258.51 244.97 257.99L245.34 257.74C248.87 255.28 248.87 255.29 254.51 258.39L256.21 259.33C261.54 262.28 262.21 262.48 265.56 258.71C266.05 258.15 266.62 257.5 267.31 256.76C271.61 252.15 272.23 252.44 275.67 254.01L276 254.16C276.278 254.286 276.596 254.296 276.882 254.188C277.168 254.081 277.399 253.863 277.525 253.585C277.651 253.307 277.661 252.989 277.553 252.703C277.446 252.417 277.228 252.186 276.95 252.06L276.62 251.91C272.49 250.02 270.79 249.65 265.62 255.18C264.9 255.95 264.31 256.61 263.82 257.18C262.61 258.55 262.01 259.18 261.52 259.24C261.03 259.3 259.52 258.53 257.32 257.31L255.61 256.37C249.24 252.86 248.72 252.57 244.01 255.84L243.65 256.09C242.86 256.63 242.13 257.18 241.43 257.71C237.78 260.46 236.04 261.57 233.29 259.05C229.61 255.68 225.16 252.73 220.04 256.46C219.52 256.84 219.04 257.21 218.56 257.58C215.47 259.93 213.61 261.35 210.24 259.27C209.24 258.65 208.34 258 207.47 257.37C204.47 255.17 201.56 253.09 197.83 256.15C196.44 257.28 195.63 257.74 195.07 257.67C194.13 257.56 192.78 255.75 190.72 253.01L190.55 252.77C189.973 251.89 189.209 251.148 188.311 250.598C187.414 250.049 186.406 249.704 185.36 249.59C183.18 249.573 181.081 250.417 179.52 251.94C179.411 252.046 179.325 252.173 179.266 252.313C179.207 252.453 179.177 252.603 179.177 252.755C179.177 252.907 179.207 253.057 179.266 253.197C179.325 253.337 179.411 253.464 179.52 253.57C179.627 253.677 179.754 253.762 179.894 253.821C180.034 253.879 180.184 253.909 180.335 253.909C180.486 253.909 180.636 253.879 180.776 253.821C180.916 253.762 181.043 253.677 181.15 253.57C182.24 252.519 183.686 251.919 185.2 251.89C185.914 251.989 186.598 252.243 187.202 252.636C187.807 253.028 188.319 253.548 188.7 254.16L188.88 254.4C191.54 257.95 192.88 259.73 194.79 259.96C196.25 260.14 197.6 259.32 199.29 257.96C201.56 256.11 202.94 256.96 206.11 259.27C206.97 259.9 207.95 260.61 209.03 261.27C213.75 264.18 216.77 261.88 219.96 259.44L221.4 258.36C224.48 256.12 227.4 256.8 231.73 260.78C232.906 261.999 234.508 262.715 236.2 262.78C238.53 262.79 240.64 261.2 242.83 259.56Z" fill="#407BFF"/>
<path opacity="0.5" d="M236.21 251.72C234.511 251.64 232.909 250.905 231.74 249.67C227.39 245.67 224.49 245.01 221.41 247.25L220 248.33C216.81 250.77 213.79 253.07 209.07 250.16C207.99 249.5 207.01 248.79 206.15 248.16C202.98 245.86 201.6 245 199.33 246.86C197.64 248.24 196.33 249.06 194.83 248.86C192.92 248.63 191.58 246.86 188.92 243.3L188.74 243.06C188.354 242.452 187.842 241.934 187.238 241.543C186.634 241.151 185.952 240.894 185.24 240.79C183.726 240.819 182.28 241.419 181.19 242.47C181.083 242.577 180.956 242.663 180.816 242.721C180.676 242.779 180.526 242.809 180.375 242.809C180.224 242.809 180.074 242.779 179.934 242.721C179.794 242.663 179.667 242.577 179.56 242.47C179.451 242.364 179.365 242.237 179.306 242.097C179.247 241.957 179.217 241.807 179.217 241.655C179.217 241.503 179.247 241.353 179.306 241.213C179.365 241.073 179.451 240.946 179.56 240.84C181.121 239.317 183.22 238.473 185.4 238.49C186.446 238.604 187.454 238.949 188.351 239.498C189.249 240.048 190.013 240.79 190.59 241.67L190.76 241.91C192.82 244.65 194.17 246.46 195.11 246.57C195.64 246.63 196.48 246.18 197.87 245.05C201.6 241.99 204.47 244.05 207.51 246.27C208.38 246.9 209.28 247.55 210.28 248.17C213.65 250.25 215.51 248.83 218.6 246.48C219.07 246.11 219.6 245.74 220.08 245.37C225.2 241.64 229.65 244.58 233.33 247.95C236.08 250.47 237.82 249.36 241.47 246.61C242.17 246.09 242.9 245.53 243.69 244.99L244.05 244.74C248.76 241.47 249.28 241.74 255.65 245.27L257.36 246.21C259.57 247.43 260.93 248.21 261.56 248.14C262.19 248.07 262.65 247.45 263.86 246.08C264.35 245.51 264.94 244.85 265.66 244.08C270.82 238.55 272.51 238.92 276.66 240.81L276.99 240.96C277.268 241.086 277.485 241.317 277.593 241.603C277.701 241.889 277.691 242.207 277.565 242.485C277.439 242.763 277.208 242.98 276.922 243.088C276.636 243.196 276.318 243.186 276.04 243.06L275.71 242.91C272.27 241.34 271.65 241.06 267.35 245.66C266.66 246.41 266.09 247.05 265.6 247.61C262.28 251.38 261.6 251.18 256.25 248.23L254.55 247.29C248.91 244.19 248.91 244.19 245.38 246.64L245.01 246.89C244.25 247.42 243.55 247.95 242.87 248.46C240.64 250.12 238.53 251.72 236.21 251.72ZM242.83 259.56C243.51 259.05 244.21 258.51 244.97 257.99L245.34 257.74C248.87 255.28 248.87 255.29 254.51 258.39L256.21 259.33C261.54 262.28 262.21 262.48 265.56 258.71C266.05 258.15 266.62 257.5 267.31 256.76C271.61 252.15 272.23 252.44 275.67 254.01L276 254.16C276.278 254.286 276.596 254.296 276.882 254.188C277.168 254.081 277.399 253.863 277.525 253.585C277.651 253.307 277.661 252.989 277.553 252.703C277.446 252.417 277.228 252.186 276.95 252.06L276.62 251.91C272.49 250.02 270.79 249.65 265.62 255.18C264.9 255.95 264.31 256.61 263.82 257.18C262.61 258.55 262.01 259.18 261.52 259.24C261.03 259.3 259.52 258.53 257.32 257.31L255.61 256.37C249.24 252.86 248.72 252.57 244.01 255.84L243.65 256.09C242.86 256.63 242.13 257.18 241.43 257.71C237.78 260.46 236.04 261.57 233.29 259.05C229.61 255.68 225.16 252.73 220.04 256.46C219.52 256.84 219.04 257.21 218.56 257.58C215.47 259.93 213.61 261.35 210.24 259.27C209.24 258.65 208.34 258 207.47 257.37C204.47 255.17 201.56 253.09 197.83 256.15C196.44 257.28 195.63 257.74 195.07 257.67C194.13 257.56 192.78 255.75 190.72 253.01L190.55 252.77C189.973 251.89 189.209 251.148 188.311 250.598C187.414 250.049 186.406 249.704 185.36 249.59C183.18 249.573 181.081 250.417 179.52 251.94C179.411 252.046 179.325 252.173 179.266 252.313C179.207 252.453 179.177 252.603 179.177 252.755C179.177 252.907 179.207 253.057 179.266 253.197C179.325 253.337 179.411 253.464 179.52 253.57C179.627 253.677 179.754 253.762 179.894 253.821C180.034 253.879 180.184 253.909 180.335 253.909C180.486 253.909 180.636 253.879 180.776 253.821C180.916 253.762 181.043 253.677 181.15 253.57C182.24 252.519 183.686 251.919 185.2 251.89C185.914 251.989 186.598 252.243 187.202 252.636C187.807 253.028 188.319 253.548 188.7 254.16L188.88 254.4C191.54 257.95 192.88 259.73 194.79 259.96C196.25 260.14 197.6 259.32 199.29 257.96C201.56 256.11 202.94 256.96 206.11 259.27C206.97 259.9 207.95 260.61 209.03 261.27C213.75 264.18 216.77 261.88 219.96 259.44L221.4 258.36C224.48 256.12 227.4 256.8 231.73 260.78C232.906 261.999 234.508 262.715 236.2 262.78C238.53 262.79 240.64 261.2 242.83 259.56Z" fill="white"/>
<path d="M199.62 238.91C199.62 238.91 195.48 247.83 196.44 253.57C196.892 255.883 197.21 258.22 197.39 260.57C197.39 260.57 191.39 277.15 190.39 283.2C189.955 285.715 190.232 288.302 191.19 290.668C192.148 293.034 193.748 295.085 195.81 296.59C199.32 299.14 247.13 299.78 254.46 297.87C261.79 295.96 261.15 288.94 260.83 282.57C260.51 276.2 258 262.5 258 262.5C258 262.5 259 243.05 254.82 238.27" stroke="#263238" stroke-width="1.23197" stroke-linecap="round" stroke-linejoin="round"/>
<path d="M216.81 216.6L215.45 216.87C215.32 217.461 215.249 218.064 215.24 218.67C215.24 224.74 221.74 229.67 229.75 229.67C237.76 229.67 244.25 224.74 244.25 218.67C244.25 218.49 244.25 218.33 244.25 218.15C240.38 217.15 237.25 216.6 237.25 216.6C230.478 215.539 223.582 215.539 216.81 216.6V216.6Z" fill="#407BFF" stroke="#263238" stroke-width="1.23197" stroke-linecap="round" stroke-linejoin="round"/>
<path d="M220 210.54C220 210.54 219 218.19 220 220.74C221 223.29 227 228.07 233.07 226.16C235.052 225.538 236.791 224.314 238.045 222.658C239.3 221.002 240.008 218.996 240.07 216.92V208L220.31 208.64L220 210.54Z" fill="#9C9C9C" stroke="#263238" stroke-width="1.23197" stroke-linecap="round" stroke-linejoin="round"/>
<path d="M230.22 207.35C242.718 207.35 252.85 197.433 252.85 185.2C252.85 172.967 242.718 163.05 230.22 163.05C217.722 163.05 207.59 172.967 207.59 185.2C207.59 197.433 217.722 207.35 230.22 207.35Z" fill="#263238" stroke="#263238" stroke-width="1.23197" stroke-linecap="round" stroke-linejoin="round"/>
<path d="M215.88 192.69C215.88 192.69 213.97 188.23 212.69 192.37C211.41 196.51 214.29 201.62 216.2 201.93C218.11 202.24 215.88 192.69 215.88 192.69Z" fill="#9C9C9C" stroke="#263238" stroke-width="1.23197" stroke-linecap="round" stroke-linejoin="round"/>
<path d="M243.43 192.69C243.43 192.69 245.34 188.23 246.62 192.37C247.9 196.51 245.02 201.62 243.11 201.93C241.2 202.24 243.43 192.69 243.43 192.69Z" fill="#9C9C9C" stroke="#263238" stroke-width="1.23197" stroke-linecap="round" stroke-linejoin="round"/>
<path d="M239.64 177.8C238.785 177.149 237.804 176.682 236.759 176.429C235.714 176.176 234.628 176.142 233.57 176.33C231.628 176.71 229.646 176.851 227.67 176.75C224.49 176.44 221.94 175.16 219.39 177.75C216.84 180.34 215.56 192.09 215.56 198.15C215.56 204.21 220 212.77 223.21 215C226.42 217.23 235.32 216.92 237.55 215C239.78 213.08 243.29 206.08 243.93 200.34C244.57 194.6 243.29 183.45 242.02 180.58C241.458 179.478 240.643 178.525 239.64 177.8Z" fill="#9C9C9C" stroke="#263238" stroke-width="1.23197" stroke-linecap="round" stroke-linejoin="round"/>
<path d="M225.46 193.64C226.117 193.64 226.65 192.767 226.65 191.69C226.65 190.613 226.117 189.74 225.46 189.74C224.803 189.74 224.27 190.613 224.27 191.69C224.27 192.767 224.803 193.64 225.46 193.64Z" fill="#263238"/>
<path d="M236.05 191.69C236.05 192.77 235.52 193.64 234.86 193.64C234.2 193.64 233.67 192.77 233.67 191.69C233.67 190.61 234.21 189.74 234.86 189.74C235.51 189.74 236.05 190.62 236.05 191.69Z" fill="#263238"/>
<path d="M231.62 202.72C231.62 203.79 231.09 204.66 230.43 204.66C229.77 204.66 229.24 203.79 229.24 202.72C229.24 201.65 229.77 200.77 230.43 200.77C231.09 200.77 231.62 201.64 231.62 202.72Z" fill="#263238"/>
<path d="M228.05 194.07C226.05 197.2 229.85 199.21 232.38 197.31C234.11 196.01 232.38 194.07 232.38 194.07" fill="#9C9C9C"/>
<path d="M228.05 194.07C226.05 197.2 229.85 199.21 232.38 197.31C234.11 196.01 232.38 194.07 232.38 194.07" stroke="#263238" stroke-width="1.23197" stroke-linecap="round" stroke-linejoin="round"/>
<path d="M221.35 187.37C221.35 187.37 224.59 184.37 227.84 185.85" stroke="#263238" stroke-width="1.23197" stroke-linecap="round" stroke-linejoin="round"/>
<path d="M233.24 186.07C233.24 186.07 236.24 184.12 239.08 187.8" stroke="#263238" stroke-width="1.23197" stroke-linecap="round" stroke-linejoin="round"/>
<path d="M132.8 398.57C132.8 398.57 113.65 402.32 113.65 404.27C113.65 406.22 138.05 411.76 140.65 412.08C143.25 412.4 143.65 399.84 143.65 399.84L132.8 398.57Z" fill="white" stroke="#263238" stroke-width="1.23197" stroke-linecap="round" stroke-linejoin="round"/>
<path d="M142.25 410.21L114.93 403.21C114.13 403.58 113.65 403.94 113.65 404.21C113.65 406.21 138.05 411.7 140.65 412.02C141.32 412.16 141.84 411.39 142.25 410.21Z" fill="#407BFF" stroke="#263238" stroke-width="1.23197" stroke-linecap="round" stroke-linejoin="round"/>
<path d="M182.53 400.8C182.53 400.8 163.1 409.15 164.4 411.11C165.7 413.07 191.08 412.11 193.68 411.76C196.28 411.41 193.68 399.84 193.68 399.84L182.53 400.8Z" fill="white" stroke="#263238" stroke-width="1.23197" stroke-linecap="round" stroke-linejoin="round"/>
<path d="M165 409.88C164.43 410.39 164.17 410.82 164.36 411.11C165.66 413.06 191.04 412.11 193.64 411.76C194.27 411.68 194.59 410.94 194.72 409.88H165Z" fill="#407BFF" stroke="#263238" stroke-width="1.23197" stroke-linecap="round" stroke-linejoin="round"/>
<path d="M103.08 272.71H176.41V269.75H103.08V272.71Z" fill="white" stroke="#263238" stroke-width="1.23197" stroke-linecap="round" stroke-linejoin="round"/>
<path d="M82.4 272.71H155.73V269.75H82.4V272.71Z" fill="white" stroke="#263238" stroke-width="1.23197" stroke-linecap="round" stroke-linejoin="round"/>
<path d="M90.57 264.49H151.72L145.13 217.81H83.98L90.57 264.49Z" fill="white" stroke="#263238" stroke-width="1.23197" stroke-linecap="round" stroke-linejoin="round"/>
<path d="M88.04 264.49H149.19L142.6 217.81H81.45L88.04 264.49Z" fill="#263238" stroke="#263238" stroke-width="1.23197" stroke-linecap="round" stroke-linejoin="round"/>
<path d="M106.78 242.79L100.64 272.71H116.42L122.56 242.79H106.78ZM117.48 251.67C117.451 251.792 117.382 251.9 117.284 251.978C117.186 252.056 117.065 252.099 116.94 252.1L108 252C107.916 251.999 107.833 251.98 107.757 251.942C107.682 251.905 107.616 251.851 107.564 251.785C107.512 251.719 107.476 251.642 107.458 251.559C107.44 251.477 107.44 251.392 107.46 251.31L108.27 247.96C108.299 247.837 108.37 247.727 108.47 247.649C108.57 247.571 108.693 247.529 108.82 247.53L117.76 247.62C117.843 247.621 117.925 247.64 117.999 247.677C118.073 247.713 118.138 247.766 118.189 247.832C118.24 247.897 118.276 247.973 118.293 248.054C118.311 248.135 118.31 248.219 118.29 248.3L117.48 251.67Z" fill="white" stroke="#263238" stroke-width="1.23197" stroke-linecap="round" stroke-linejoin="round"/>
<path d="M93.8055 217.026C95.234 210.973 91.4856 204.909 85.4332 203.48C79.3807 202.052 73.3162 205.8 71.8877 211.853C70.4592 217.905 74.2077 223.969 80.2601 225.398C86.3125 226.827 92.377 223.078 93.8055 217.026Z" fill="#407BFF" stroke="#263238" stroke-width="1.23197" stroke-linecap="round" stroke-linejoin="round"/>
<path d="M82.69 216.74L79.37 220.52C79.2248 220.711 79.0491 220.876 78.85 221.01C78.6222 221.183 78.3552 221.298 78.0726 221.343C77.79 221.388 77.5006 221.363 77.23 221.27C77.0205 221.208 76.8283 221.098 76.6686 220.948C76.509 220.799 76.3862 220.615 76.31 220.41C76.1982 220.072 76.1869 219.709 76.2774 219.364C76.3679 219.02 76.5564 218.709 76.82 218.47L80.67 214.39L77 210.13C76.7188 209.791 76.5571 209.37 76.54 208.93C76.5248 208.749 76.5471 208.567 76.6056 208.395C76.6641 208.222 76.7575 208.064 76.88 207.93C77.1186 207.681 77.4135 207.492 77.74 207.38C78.0988 207.251 78.4912 207.251 78.85 207.38C79.2811 207.544 79.6559 207.829 79.93 208.2L83.12 212L86.12 208.51C86.2751 208.289 86.4641 208.093 86.68 207.93C86.9051 207.72 87.1855 207.578 87.4884 207.521C87.7913 207.464 88.104 207.495 88.39 207.61C88.5951 207.684 88.7821 207.801 88.9389 207.953C89.0957 208.105 89.2188 208.288 89.3 208.49C89.407 208.723 89.4423 208.982 89.4013 209.235C89.3603 209.488 89.245 209.723 89.07 209.91L85.07 214.28L89.07 218.97C89.1971 219.128 89.3015 219.303 89.38 219.49C89.4767 219.733 89.5046 219.998 89.4605 220.255C89.4163 220.513 89.302 220.753 89.13 220.95C88.977 221.145 88.7831 221.304 88.562 221.417C88.3409 221.529 88.0979 221.592 87.85 221.6C87.4816 221.607 87.1178 221.518 86.7937 221.343C86.4696 221.168 86.1962 220.912 86 220.6L82.69 216.74Z" fill="#263238"/>
<path d="M227 289.73L223.82 409.44C223.802 410.202 223.486 410.927 222.94 411.46C222.395 411.992 221.662 412.29 220.9 412.29V412.29C220.135 412.282 219.403 411.976 218.861 411.436C218.32 410.896 218.01 410.165 218 409.4L216.44 289.73H227Z" fill="white" stroke="#263238" stroke-width="1.23197" stroke-linecap="round" stroke-linejoin="round"/>
<path d="M188.34 289.73L185.17 409.44C185.152 410.204 184.835 410.93 184.287 411.463C183.739 411.996 183.004 412.293 182.24 412.29C181.471 412.29 180.733 411.987 180.186 411.445C179.639 410.904 179.328 410.169 179.32 409.4L177.75 289.73H188.34Z" fill="white" stroke="#263238" stroke-width="1.23197" stroke-linecap="round" stroke-linejoin="round"/>
<path d="M92.72 289.73L89.55 409.44C89.5317 410.204 89.2146 410.93 88.6668 411.463C88.119 411.996 87.3842 412.293 86.62 412.29V412.29C85.8507 412.29 85.1125 411.987 84.5658 411.445C84.019 410.904 83.7079 410.169 83.7 409.4L82.13 289.73H92.72Z" fill="white" stroke="#263238" stroke-width="1.23197" stroke-linecap="round" stroke-linejoin="round"/>
<path d="M54 289.73L50.87 409.44C50.852 410.194 50.5433 410.911 50.0084 411.442C49.4734 411.974 48.7538 412.277 48 412.29V412.29C47.6127 412.299 47.2274 412.232 46.8665 412.091C46.5055 411.951 46.176 411.74 45.897 411.471C45.618 411.202 45.395 410.881 45.2411 410.525C45.0871 410.17 45.0052 409.787 45 409.4L43.46 289.73H54Z" fill="white" stroke="#263238" stroke-width="1.23197" stroke-linecap="round" stroke-linejoin="round"/>
<path d="M39.93 290.99H230.78V276.66H39.93V290.99Z" fill="white" stroke="#263238" stroke-width="1.23197" stroke-linecap="round" stroke-linejoin="round"/>
<path d="M177.47 290.99H230.78V276.66H177.47V290.99Z" fill="white" stroke="#263238" stroke-width="1.23197" stroke-linecap="round" stroke-linejoin="round"/>
<path d="M39.93 283.82H230.78V276.66H39.93V283.82Z" fill="#263238" stroke="#263238" stroke-width="1.23197" stroke-linecap="round" stroke-linejoin="round"/>
<path d="M36.97 279.62H233.74V271.73H36.97V279.62Z" fill="#407BFF" stroke="#263238" stroke-width="1.23197" stroke-linecap="round" stroke-linejoin="round"/>
<path d="M36.97 279.62H173.93V271.73H36.97V279.62Z" fill="#407BFF" stroke="#263238" stroke-width="1.23197" stroke-linecap="round" stroke-linejoin="round"/>
<path d="M466.77 412.29H475" stroke="#263238" stroke-width="1.23197" stroke-linecap="round" stroke-linejoin="round"/>
<path d="M19 412.29H453.38" stroke="#263238" stroke-width="1.23197" stroke-linecap="round" stroke-linejoin="round"/>
</svg>
